<?xml version="1.0" standalone="no"?>
<!DOCTYPE svg PUBLIC "-//W3C//DTD SVG 20010904//EN"
 "http://www.w3.org/TR/2001/REC-SVG-20010904/DTD/svg10.dtd">
<svg version="1.0" xmlns="http://www.w3.org/2000/svg"
 width="700.000000pt" height="700.000000pt" viewBox="0 0 700.000000 700.000000"
 preserveAspectRatio="xMidYMid meet">
<metadata>
Created by potrace 1.11, written by Peter Selinger 2001-2013
</metadata>
<g transform="translate(0.000000,700.000000) scale(0.100000,-0.100000)"
fill="#000000" stroke="none">
<path d="M3065 6985 c-247 -33 -494 -91 -699 -162 -91 -32 -128 -46 -261 -101
-47 -20 -272 -132 -330 -164 -71 -41 -242 -148 -270 -171 -5 -4 -44 -32 -85
-63 -41 -30 -82 -60 -90 -67 -518 -422 -876 -910 -1105 -1507 -48 -125 -142
-455 -158 -555 -3 -16 -12 -70 -21 -120 -8 -49 -18 -119 -21 -155 -4 -36 -10
-101 -14 -145 -9 -88 -7 -536 3 -600 3 -22 10 -76 16 -120 66 -525 290 -1098
599 -1535 44 -63 174 -233 195 -256 6 -7 36 -40 66 -75 174 -198 427 -421 645
-570 44 -30 82 -57 83 -61 2 -5 8 -8 13 -8 5 0 32 -15 61 -34 280 -178 720
-359 1048 -430 291 -63 460 -81 770 -81 213 0 354 9 477 29 21 4 54 9 73 11
19 3 46 7 60 10 14 3 41 8 60 11 76 13 342 85 453 124 355 122 688 300 982
524 44 34 85 66 91 71 7 6 39 33 72 60 85 70 324 314 408 415 239 287 431 611
567 955 49 125 129 368 141 428 2 12 14 65 25 117 11 52 23 109 25 125 3 17
10 59 16 95 35 212 36 283 35 1966 -2 1502 -4 1662 -18 1695 -42 94 -129 151
-230 150 -87 0 -159 -27 -251 -92 -44 -32 -89 -64 -99 -71 -10 -7 -196 -141
-415 -297 -218 -157 -414 -296 -434 -310 -20 -14 -130 -93 -245 -175 -114 -83
-223 -155 -242 -162 -62 -21 -131 -4 -189 47 -15 13 -65 57 -112 98 -47 41
-87 77 -90 81 -3 3 -52 46 -110 95 -110 94 -162 140 -189 165 -9 9 -50 45 -91
80 -41 36 -77 67 -80 70 -3 3 -41 37 -85 75 -44 39 -82 72 -85 75 -3 3 -57 50
-120 105 -63 55 -131 114 -150 131 -136 121 -227 198 -259 218 -36 23 -109 54
-146 63 -43 10 -205 9 -290 -2z m-22 -1199 c103 -28 183 -78 317 -200 25 -23
76 -68 115 -101 62 -54 233 -204 261 -230 6 -5 39 -35 74 -65 35 -30 71 -62
80 -70 9 -8 50 -44 91 -80 41 -35 82 -71 92 -80 10 -8 25 -23 35 -33 41 -45
215 -166 297 -209 83 -42 265 -113 265 -103 0 2 12 0 26 -5 45 -18 205 -38
294 -38 137 0 340 60 557 164 140 67 168 74 222 58 55 -16 98 -57 111 -104 10
-38 15 -1331 6 -1415 -12 -102 -27 -193 -51 -300 -166 -740 -672 -1354 -1375
-1668 -119 -54 -321 -120 -430 -142 -86 -17 -200 -37 -234 -41 -22 -2 -63 -6
-91 -9 -66 -7 -334 -7 -410 0 -401 37 -796 181 -1130 413 -137 94 -215 161
-355 301 -281 282 -472 592 -594 964 -17 50 -53 186 -61 228 -37 189 -48 305
-49 489 0 233 23 401 84 620 17 63 32 123 33 133 1 9 6 17 11 17 5 0 7 3 4 6
-3 3 10 44 29 92 189 472 498 855 912 1132 95 64 290 168 391 209 30 12 64 26
75 31 38 17 128 43 164 47 20 3 37 6 39 8 9 8 143 -6 195 -19z m-1853 -1570
c0 -2 -8 -10 -17 -17 -16 -13 -17 -12 -4 4 13 16 21 21 21 13z m-869 -23 c13
-16 12 -17 -3 -4 -10 7 -18 15 -18 17 0 8 8 3 21 -13z m789 -56 c0 -2 -10 -12
-22 -23 l-23 -19 19 23 c18 21 26 27 26 19z"/>
</g>
</svg>
